0
SECTION
2
HEADER
9
$INSUNITS
70
4
9
$ACADVER
1
AC1014
9
$HANDSEED
5
FFFF
0
ENDSEC
0
SECTION
2
TABLES
0
TABLE
2
VPORT
5
8
100
AcDbSymbolTable
0
ENDTAB
0
TABLE
2
LTYPE
5
5
100
AcDbSymbolTable
0
LTYPE
5
14
100
AcDbSymbolTableRecord
100
AcDbLinetypeTableRecord
2
BYBLOCK
70
0
0
LTYPE
5
15
100
AcDbSymbolTableRecord
100
AcDbLinetypeTableRecord
2
BYLAYER
70
0
0
ENDTAB
0
TABLE
2
LAYER
5
2
100
AcDbSymbolTable
70
2
0
LAYER
5
50
100
AcDbSymbolTableRecord
100
AcDbLayerTableRecord
2
0
70
0
6
CONTINUOUS
0
ENDTAB
0
TABLE
2
STYLE
5
3
100
AcDbSymbolTable
70
1
0
STYLE
5
11
100
AcDbSymbolTableRecord
100
AcDbTextStyleTableRecord
2
STANDARD
70
0
0
ENDTAB
0
TABLE
2
VIEW
5
6
100
AcDbSymbolTable
70
0
0
ENDTAB
0
TABLE
2
UCS
5
7
100
AcDbSymbolTable
70
0
0
ENDTAB
0
TABLE
2
APPID
5
9
100
AcDbSymbolTable
70
2
0
APPID
5
12
100
AcDbSymbolTableRecord
100
AcDbRegAppTableRecord
2
ACAD
70
0
0
ENDTAB
0
TABLE
2
DIMSTYLE
5
A
100
AcDbSymbolTable
70
1
0
ENDTAB
0
TABLE
2
BLOCK_RECORD
5
1
100
AcDbSymbolTable
70
1
0
BLOCK_RECORD
5
1F
100
AcDbSymbolTableRecord
100
AcDbBlockTableRecord
2
*MODEL_SPACE
0
BLOCK_RECORD
5
1B
100
AcDbSymbolTableRecord
100
AcDbBlockTableRecord
2
*PAPER_SPACE
0
ENDTAB
0
ENDSEC
0
SECTION
2
BLOCKS
0
BLOCK
5
20
100
AcDbEntity
100
AcDbBlockBegin
2
*MODEL_SPACE
0
ENDBLK
5
21
100
AcDbEntity
100
AcDbBlockEnd
0
BLOCK
5
1C
100
AcDbEntity
100
AcDbBlockBegin
2
*PAPER_SPACE
0
ENDBLK
5
1D
100
AcDbEntity
100
AcDbBlockEnd
0
ENDSEC
0
SECTION
2
ENTITIES
0
LINE
5
100
100
AcDbEntity
8
0
100
AcDbLine
10
75
20
1.1175870895385742e-06
30
0
11
-75
21
150.00000111758709
31
0
0
LINE
5
101
100
AcDbEntity
8
0
100
AcDbLine
10
-75
20
1.1175870895385742e-06
30
0
11
75
21
150.00000111758709
31
0
0
LINE
5
102
100
AcDbEntity
8
0
100
AcDbLine
10
-75
20
3.0011042839272317
30
0
11
-55.000000819563866
21
3.0011042839272317
31
0
0
LINE
5
103
100
AcDbEntity
8
0
100
AcDbLine
10
-55.000000819563866
20
3.0011042839272317
30
0
11
-55.000000819563866
21
1.1175870895385742e-06
31
0
0
LINE
5
104
100
AcDbEntity
8
0
100
AcDbLine
10
-35.000000521540642
20
3.0000000447034836
30
0
11
-35.000000521540642
21
1.1175870895385742e-06
31
0
0
LINE
5
105
100
AcDbEntity
8
0
100
AcDbLine
10
35.000000521540642
20
3.0000000447034836
30
0
11
35.000000521540642
21
1.1175870895385742e-06
31
0
0
LINE
5
106
100
AcDbEntity
8
0
100
AcDbLine
10
55.000000819563866
20
3.0000000447034836
30
0
11
55.000000819563866
21
1.1175870895385742e-06
31
0
0
LINE
5
107
100
AcDbEntity
8
0
100
AcDbLine
10
55.000000819563866
20
3.0000000447034836
30
0
11
75
21
3.0000000447034836
31
0
0
LINE
5
108
100
AcDbEntity
8
0
100
AcDbLine
10
55.000000819563866
20
1.1175870895385742e-06
30
0
11
35.000000521540642
21
1.1175870895385742e-06
31
0
0
LINE
5
109
100
AcDbEntity
8
0
100
AcDbLine
10
-35.000000521540642
20
1.1175870895385742e-06
30
0
11
-55.000000819563866
21
1.1175870895385742e-06
31
0
0
LINE
5
110
100
AcDbEntity
8
0
100
AcDbLine
10
75
20
75.00000111758709
30
0
11
-75
21
75.00000111758709
31
0
0
LINE
5
111
100
AcDbEntity
8
0
100
AcDbLine
10
55.000000819563866
20
150.00000111758709
30
0
11
75
21
150.00000111758709
31
0
0
LINE
5
112
100
AcDbEntity
8
0
100
AcDbLine
10
-75
20
150.00000111758709
30
0
11
-55.000000819563866
21
150.00000111758709
31
0
0
LINE
5
113
100
AcDbEntity
8
0
100
AcDbLine
10
-75
20
130.00000111758709
30
0
11
-78
21
130.00000111758709
31
0
0
LINE
5
114
100
AcDbEntity
8
0
100
AcDbLine
10
-78
20
130.00000111758709
30
0
11
-78
21
110.00000111758709
31
0
0
LINE
5
115
100
AcDbEntity
8
0
100
AcDbLine
10
-78
20
110.00000111758709
30
0
11
-75
21
110.00000111758709
31
0
0
LINE
5
116
100
AcDbEntity
8
0
100
AcDbLine
10
-75
20
130.00000111758709
30
0
11
-75
21
150.00000111758709
31
0
0
LINE
5
117
100
AcDbEntity
8
0
100
AcDbLine
10
-75
20
20.00000111758709
30
0
11
-78
21
20.00000111758709
31
0
0
LINE
5
118
100
AcDbEntity
8
0
100
AcDbLine
10
-78
20
20.00000111758709
30
0
11
-78
21
40.00000111758709
31
0
0
LINE
5
119
100
AcDbEntity
8
0
100
AcDbLine
10
-78
20
40.00000111758709
30
0
11
-75
21
40.00000111758709
31
0
0
LINE
5
120
100
AcDbEntity
8
0
100
AcDbLine
10
-75
20
3.0011042839272317
30
0
11
-75
21
20.00000111758709
31
0
0
LINE
5
121
100
AcDbEntity
8
0
100
AcDbLine
10
0
20
150.00000111758709
30
0
11
0
21
3.0000000447034836
31
0
0
LINE
5
122
100
AcDbEntity
8
0
100
AcDbLine
10
75
20
130.00000111758709
30
0
11
72
21
130.00000111758709
31
0
0
LINE
5
123
100
AcDbEntity
8
0
100
AcDbLine
10
72
20
130.00000111758709
30
0
11
72
21
110.00000163912773
31
0
0
LINE
5
124
100
AcDbEntity
8
0
100
AcDbLine
10
72
20
110.00000163912773
30
0
11
75
21
110.00000111758709
31
0
0
LINE
5
125
100
AcDbEntity
8
0
100
AcDbLine
10
75
20
150.00000111758709
30
0
11
75
21
130.00000111758709
31
0
0
LINE
5
126
100
AcDbEntity
8
0
100
AcDbLine
10
72
20
40.000000596046448
30
0
11
75
21
40.00000111758709
31
0
0
LINE
5
127
100
AcDbEntity
8
0
100
AcDbLine
10
72
20
20.00000111758709
30
0
11
72
21
40.000000596046448
31
0
0
LINE
5
128
100
AcDbEntity
8
0
100
AcDbLine
10
75
20
20.00000111758709
30
0
11
72
21
20.00000111758709
31
0
0
LINE
5
129
100
AcDbEntity
8
0
100
AcDbLine
10
75
20
20.00000111758709
30
0
11
75
21
3.0000000447034836
31
0
0
LINE
5
130
100
AcDbEntity
8
0
100
AcDbLine
10
-10.000000149011612
20
3.0000000447034836
30
0
11
-10.000000149011612
21
0
31
0
0
LINE
5
131
100
AcDbEntity
8
0
100
AcDbLine
10
-10.000000149011612
20
0
30
0
11
10.000000149011612
21
0
31
0
0
LINE
5
132
100
AcDbEntity
8
0
100
AcDbLine
10
10.000000149011612
20
0
30
0
11
10.000000149011612
21
3.0000000447034836
31
0
0
LINE
5
133
100
AcDbEntity
8
0
100
AcDbLine
10
-35.000000521540642
20
3.0000000447034836
30
0
11
-10.000000149011612
21
3.0000000447034836
31
0
0
LINE
5
134
100
AcDbEntity
8
0
100
AcDbLine
10
10.000000149011612
20
3.0000000447034836
30
0
11
35.000000521540642
21
3.0000000447034836
31
0
0
LINE
5
135
100
AcDbEntity
8
0
100
AcDbLine
10
-35.000000521540642
20
150.00000111758709
30
0
11
-10.000000149011612
21
150.00000223517418
31
0
0
LINE
5
136
100
AcDbEntity
8
0
100
AcDbLine
10
10.000000149011612
20
150.00000223517418
30
0
11
35.000000521540642
21
150.00000111758709
31
0
0
LINE
5
137
100
AcDbEntity
8
0
100
AcDbLine
10
75
20
85.000001378356998
30
0
11
72
21
85.000001378356998
31
0
0
LINE
5
138
100
AcDbEntity
8
0
100
AcDbLine
10
72
20
85.000001378356998
30
0
11
72
21
65.000001378356998
31
0
0
LINE
5
139
100
AcDbEntity
8
0
100
AcDbLine
10
72
20
65.000001378356998
30
0
11
75
21
65.00000137835697
31
0
0
LINE
5
140
100
AcDbEntity
8
0
100
AcDbLine
10
75
20
110.00000111758709
30
0
11
75
21
85.000001378356998
31
0
0
LINE
5
141
100
AcDbEntity
8
0
100
AcDbLine
10
75
20
65.00000137835697
30
0
11
75
21
40.00000111758709
31
0
0
LINE
5
142
100
AcDbEntity
8
0
100
AcDbLine
10
-75
20
85.000001378356998
30
0
11
-78
21
85.000001378356998
31
0
0
LINE
5
143
100
AcDbEntity
8
0
100
AcDbLine
10
-78
20
85.000001378356998
30
0
11
-78
21
65.000001378356998
31
0
0
LINE
5
144
100
AcDbEntity
8
0
100
AcDbLine
10
-78
20
65.000001378356998
30
0
11
-75
21
65.000001378356984
31
0
0
LINE
5
145
100
AcDbEntity
8
0
100
AcDbLine
10
-75
20
40.00000111758709
30
0
11
-75
21
65.000001378356984
31
0
0
LINE
5
146
100
AcDbEntity
8
0
100
AcDbLine
10
-75
20
85.000001378356998
30
0
11
-75
21
110.00000111758709
31
0
0
LINE
5
147
100
AcDbEntity
8
0
100
AcDbLine
10
-55.000000551243971
20
153.00111233055426
30
0
11
-55.00000081956351
21
150.00000916421413
31
0
0
LINE
5
148
100
AcDbEntity
8
0
100
AcDbLine
10
-55.000000551243971
20
153.00111233055426
30
0
11
-35.000000253319563
21
153.00000630319116
31
0
0
LINE
5
149
100
AcDbEntity
8
0
100
AcDbLine
10
-35.000000253319563
20
153.00000630319116
30
0
11
-35.000000521540365
21
150.00000737607479
31
0
0
LINE
5
150
100
AcDbEntity
8
0
100
AcDbLine
10
-9.9999998807906287
20
153.00000406801698
30
0
11
-10.000000149011532
21
150.00000402331352
31
0
0
LINE
5
151
100
AcDbEntity
8
0
100
AcDbLine
10
-9.9999998807906287
20
153.00000406801698
30
0
11
10.000000417232513
21
153.00000227987763
31
0
0
LINE
5
152
100
AcDbEntity
8
0
100
AcDbLine
10
10.000000149011612
20
150.00000223517418
30
0
11
10.000000417232513
21
153.00000227987763
31
0
0
LINE
5
153
100
AcDbEntity
8
0
100
AcDbLine
10
35.000000789761444
20
153.00000004470346
30
0
11
35.000000521540642
21
150.00000111758709
31
0
0
LINE
5
154
100
AcDbEntity
8
0
100
AcDbLine
10
35.000000789761444
20
153.00000004470346
30
0
11
55.00000108778459
21
152.99999825656411
31
0
0
LINE
5
155
100
AcDbEntity
8
0
100
AcDbLine
10
55.00000108778459
20
152.99999825656411
30
0
11
55.000000819563788
21
149.99999932944775
31
0
0
ENDSEC
0
SECTION
2
OBJECTS
0
DICTIONARY
5
C
100
AcDbDictionary
3
ACAD_GROUP
350
D
3
ACAD_MLINESTYLE
350
17
0
DICTIONARY
5
D
100
AcDbDictionary
0
DICTIONARY
5
1A
330
C
100
AcDbDictionary
0
DICTIONARY
5
17
100
AcDbDictionary
0
ENDSEC
0
EOF
