0
SECTION
2
HEADER
9
$INSUNITS
70
4
9
$ACADVER
1
AC1014
9
$HANDSEED
5
FFFF
0
ENDSEC
0
SECTION
2
TABLES
0
TABLE
2
VPORT
5
8
100
AcDbSymbolTable
0
ENDTAB
0
TABLE
2
LTYPE
5
5
100
AcDbSymbolTable
0
LTYPE
5
14
100
AcDbSymbolTableRecord
100
AcDbLinetypeTableRecord
2
BYBLOCK
70
0
0
LTYPE
5
15
100
AcDbSymbolTableRecord
100
AcDbLinetypeTableRecord
2
BYLAYER
70
0
0
ENDTAB
0
TABLE
2
LAYER
5
2
100
AcDbSymbolTable
70
2
0
LAYER
5
50
100
AcDbSymbolTableRecord
100
AcDbLayerTableRecord
2
0
70
0
6
CONTINUOUS
0
ENDTAB
0
TABLE
2
STYLE
5
3
100
AcDbSymbolTable
70
1
0
STYLE
5
11
100
AcDbSymbolTableRecord
100
AcDbTextStyleTableRecord
2
STANDARD
70
0
0
ENDTAB
0
TABLE
2
VIEW
5
6
100
AcDbSymbolTable
70
0
0
ENDTAB
0
TABLE
2
UCS
5
7
100
AcDbSymbolTable
70
0
0
ENDTAB
0
TABLE
2
APPID
5
9
100
AcDbSymbolTable
70
2
0
APPID
5
12
100
AcDbSymbolTableRecord
100
AcDbRegAppTableRecord
2
ACAD
70
0
0
ENDTAB
0
TABLE
2
DIMSTYLE
5
A
100
AcDbSymbolTable
70
1
0
ENDTAB
0
TABLE
2
BLOCK_RECORD
5
1
100
AcDbSymbolTable
70
1
0
BLOCK_RECORD
5
1F
100
AcDbSymbolTableRecord
100
AcDbBlockTableRecord
2
*MODEL_SPACE
0
BLOCK_RECORD
5
1B
100
AcDbSymbolTableRecord
100
AcDbBlockTableRecord
2
*PAPER_SPACE
0
ENDTAB
0
ENDSEC
0
SECTION
2
BLOCKS
0
BLOCK
5
20
100
AcDbEntity
100
AcDbBlockBegin
2
*MODEL_SPACE
0
ENDBLK
5
21
100
AcDbEntity
100
AcDbBlockEnd
0
BLOCK
5
1C
100
AcDbEntity
100
AcDbBlockBegin
2
*PAPER_SPACE
0
ENDBLK
5
1D
100
AcDbEntity
100
AcDbBlockEnd
0
ENDSEC
0
SECTION
2
ENTITIES
0
LWPOLYLINE
5
100
100
AcDbEntity
8
0
100
AcDbPolyline
90
33
70
1
43
0.0
10
75
20
-75
10
-75
20
75
10
-78.000001162290573
20
75
10
-78.000001162290573
20
55.000000819563866
10
-78.000001981854126
20
52.000000819563972
10
-75
20
52.000000819563972
10
-74.999999999999986
20
32.000000476837158
10
-78.000001162290573
20
32.000000476837158
10
-78.000001162290573
20
10.000000149011612
10
-78.000001311302142
20
7.0000001490116146
10
-75
20
7.0000001490116146
10
-75
20
-13.000000193715096
10
-78.000001162290573
20
-13.000000193715096
10
-78.000001162290573
20
-35.000000521540642
10
-78.00000064075013
20
-38.000000521540599
10
-74.999999999999986
20
-38.000000521540599
10
-75
20
-58.000000864267349
10
-78.000001162290573
20
-58.000000864267349
10
-78.000001162290573
20
-78.000001162290573
10
-75.00000111758709
20
-78.000001162290573
10
-55
20
-78.000001162290573
10
-55
20
-75
10
-35.000000521540642
20
-75
10
-35.000000521540642
20
-78.000001162290573
10
-10.000000521540642
20
-78.000001162290573
10
-10.000000521540642
20
-75
10
9.9999994784593582
20
-75
10
10.000000149011612
20
-78.000001162290573
10
35.000000521540642
20
-78.000001162290573
10
35.000000521540642
20
-75
10
55
20
-75
10
55.000000819563866
20
-78.000001162290573
10
75
20
-78.000001162290573
0
LINE
5
101
100
AcDbEntity
8
0
100
AcDbLine
10
-75
20
-75
30
0
11
75
21
75
31
0
0
LINE
5
102
100
AcDbEntity
8
0
100
AcDbLine
10
-55
20
72
30
0
11
-38.000000566244125
21
72
31
0
0
LINE
5
103
100
AcDbEntity
8
0
100
AcDbLine
10
-75
20
75
30
0
11
-58.000000864267349
21
75
31
0
0
LINE
5
104
100
AcDbEntity
8
0
100
AcDbLine
10
-75
20
0
30
0
11
75
21
0
31
0
0
LINE
5
105
100
AcDbEntity
8
0
100
AcDbLine
10
0
20
75
30
0
11
0
21
-75
31
0
0
LINE
5
106
100
AcDbEntity
8
0
100
AcDbLine
10
75
20
55
30
0
11
72
21
55
31
0
0
LINE
5
107
100
AcDbEntity
8
0
100
AcDbLine
10
72
20
55
30
0
11
72
21
35
31
0
0
LINE
5
108
100
AcDbEntity
8
0
100
AcDbLine
10
72
20
35
30
0
11
75
21
35
31
0
0
LINE
5
109
100
AcDbEntity
8
0
100
AcDbLine
10
52.000000774860382
20
72
30
0
11
35.000000521540642
21
72
31
0
0
LINE
5
110
100
AcDbEntity
8
0
100
AcDbLine
10
55
20
75
30
0
11
75
21
75
31
0
0
LINE
5
111
100
AcDbEntity
8
0
100
AcDbLine
10
75
20
75
30
0
11
75
21
55
31
0
0
LINE
5
112
100
AcDbEntity
8
0
100
AcDbLine
10
-55
20
-75
30
0
11
-55
21
-72
31
0
0
LINE
5
113
100
AcDbEntity
8
0
100
AcDbLine
10
-35.000000521540642
20
-72
30
0
11
-35.000000521540642
21
-75
31
0
0
LINE
5
114
100
AcDbEntity
8
0
100
AcDbLine
10
35.000000521540642
20
-72
30
0
11
35.000000521540642
21
-75
31
0
0
LINE
5
115
100
AcDbEntity
8
0
100
AcDbLine
10
55
20
-75
30
0
11
55
21
-72
31
0
0
LINE
5
116
100
AcDbEntity
8
0
100
AcDbLine
10
75
20
-55
30
0
11
72
21
-55
31
0
0
LINE
5
117
100
AcDbEntity
8
0
100
AcDbLine
10
72
20
-55
30
0
11
72
21
-35.000000000000007
31
0
0
LINE
5
118
100
AcDbEntity
8
0
100
AcDbLine
10
72
20
-35.000000000000007
30
0
11
75
21
-35.000000000000007
31
0
0
LINE
5
119
100
AcDbEntity
8
0
100
AcDbLine
10
75
20
-55
30
0
11
75
21
-75
31
0
0
LINE
5
120
100
AcDbEntity
8
0
100
AcDbLine
10
-10.000000521540642
20
-75
30
0
11
-10.000000521540642
21
-72
31
0
0
LINE
5
121
100
AcDbEntity
8
0
100
AcDbLine
10
9.9999994784593582
20
-72
30
0
11
9.9999994784593582
21
-75
31
0
0
LINE
5
122
100
AcDbEntity
8
0
100
AcDbLine
10
-10.000000521540642
20
72
30
0
11
7.0000001043081284
21
72
31
0
0
LINE
5
123
100
AcDbEntity
8
0
100
AcDbLine
10
-35.000000521540642
20
75
30
0
11
-13.000000193715096
21
75
31
0
0
LINE
5
124
100
AcDbEntity
8
0
100
AcDbLine
10
9.9999994784593582
20
75
30
0
11
32.000000476837158
21
75
31
0
0
LINE
5
125
100
AcDbEntity
8
0
100
AcDbLine
10
75
20
-10.000000000000009
30
0
11
72
21
-10.000000000000009
31
0
0
LINE
5
126
100
AcDbEntity
8
0
100
AcDbLine
10
72
20
-10.000000000000009
30
0
11
72
21
9.9999999999999911
31
0
0
LINE
5
127
100
AcDbEntity
8
0
100
AcDbLine
10
72
20
9.9999999999999911
30
0
11
75
21
9.9999999999999911
31
0
0
LINE
5
128
100
AcDbEntity
8
0
100
AcDbLine
10
75
20
35
30
0
11
75
21
9.9999999999999911
31
0
0
LINE
5
129
100
AcDbEntity
8
0
100
AcDbLine
10
75
20
-10.000000000000009
30
0
11
75
21
-35.000000000000007
31
0
0
LINE
5
130
100
AcDbEntity
8
0
100
AcDbLine
10
-74.999999999999986
20
35
30
0
11
-75
21
52.000000819563972
31
0
0
LINE
5
131
100
AcDbEntity
8
0
100
AcDbLine
10
-75
20
7.0000001490116146
30
0
11
-75
21
-10
31
0
0
LINE
5
132
100
AcDbEntity
8
0
100
AcDbLine
10
-74.999999999999986
20
-38.000000521540599
30
0
11
-75
21
-54.999999999999986
31
0
0
LINE
5
133
100
AcDbEntity
8
0
100
AcDbLine
10
55
20
75
30
0
11
52.000000774860382
21
75
31
0
0
LINE
5
134
100
AcDbEntity
8
0
100
AcDbLine
10
52.000000774860382
20
75
30
0
11
52.000000774860382
21
72
31
0
0
LINE
5
135
100
AcDbEntity
8
0
100
AcDbLine
10
52.000000774860382
20
72
30
0
11
32.000000476837158
21
72
31
0
0
LINE
5
136
100
AcDbEntity
8
0
100
AcDbLine
10
32.000000476837158
20
72
30
0
11
32.000000476837158
21
75
31
0
0
LINE
5
137
100
AcDbEntity
8
0
100
AcDbLine
10
9.9999994784593582
20
75
30
0
11
7.0000001043081284
21
75
31
0
0
LINE
5
138
100
AcDbEntity
8
0
100
AcDbLine
10
7.0000001043081284
20
75
30
0
11
7.0000001043081284
21
72
31
0
0
LINE
5
139
100
AcDbEntity
8
0
100
AcDbLine
10
7.0000001043081284
20
72
30
0
11
-13.000000193715096
21
72
31
0
0
LINE
5
140
100
AcDbEntity
8
0
100
AcDbLine
10
-13.000000193715096
20
72
30
0
11
-13.000000193715096
21
75
31
0
0
LINE
5
141
100
AcDbEntity
8
0
100
AcDbLine
10
-35.000000521540642
20
75
30
0
11
-38.000000566244125
21
75
31
0
0
LINE
5
142
100
AcDbEntity
8
0
100
AcDbLine
10
-38.000000566244125
20
75
30
0
11
-38.000000566244125
21
72
31
0
0
LINE
5
143
100
AcDbEntity
8
0
100
AcDbLine
10
-38.000000566244125
20
72
30
0
11
-58.000000864267349
21
72
31
0
0
LINE
5
144
100
AcDbEntity
8
0
100
AcDbLine
10
-58.000000864267349
20
72
30
0
11
-58.000000864267349
21
75
31
0
0
ENDSEC
0
SECTION
2
OBJECTS
0
DICTIONARY
5
C
100
AcDbDictionary
3
ACAD_GROUP
350
D
3
ACAD_MLINESTYLE
350
17
0
DICTIONARY
5
D
100
AcDbDictionary
0
DICTIONARY
5
1A
330
C
100
AcDbDictionary
0
DICTIONARY
5
17
100
AcDbDictionary
0
ENDSEC
0
EOF
